<svg xmlns="http://www.w3.org/2000/svg" xmlns:xlink="http://www.w3.org/1999/xlink" x="0px" y="0px" viewBox="0 0 263 49.1" style="enable-background:new 0 0 263 49.1;" xml:space="preserve">
<g>
	<g>
		<path fill="#5333ED" d="M82.3,38.7c1.6,1.6,3.5,2.9,5.5,3.7c2.1,0.9,4.4,1.4,6.7,1.4c2.2,0,4.3-0.3,6.3-1.1c2-0.8,3.8-1.9,5.4-3.4
			c1-0.8,2.9-2.6,4.2-5.3c1.4-3,1.5-5.7,1.4-7.1c0-7.1,0-14.1,0-21.2c0-0.8-0.6-1.5-1.4-1.6h-6.9c-0.9,0-1.6,0.7-1.6,1.6v20.5
			c0,1-0.2,2-0.6,2.9c-0.4,0.9-0.9,1.7-1.6,2.4c-1.4,1.4-3.2,2.2-5.2,2.2c-1,0-2-0.2-2.9-0.6c-1.8-0.8-3.2-2.2-3.9-4
			c-0.3-0.9-0.5-1.8-0.5-2.8V5.6c0-0.9-0.7-1.6-1.6-1.6h-6.8c-0.9,0-1.6,0.7-1.6,1.6v20.6c0,2.3,0.5,4.7,1.4,6.8
			C79.5,35.2,80.8,37.1,82.3,38.7z"/>
		<path fill="#5333ED" d="M180.6,4h-27.1c-0.9,0-1.6,0.8-1.6,1.6v6.7c0,0.9,0.7,1.6,1.6,1.6h1.8c0.9,0,1.6,0.7,1.6,1.6V26
			c0,2.4,0.5,4.8,1.4,6.9c1.8,4.3,5.2,7.7,9.5,9.5c2.2,0.9,4.5,1.4,6.9,1.4h6.1c0.9,0,1.6-0.8,1.6-1.6v-6.7c0-0.9-0.7-1.6-1.6-1.6
			h-6.1c-1,0-2.1-0.2-3-0.6c-0.9-0.4-1.7-1-2.4-1.7c-0.7-0.7-1.3-1.5-1.6-2.5c-0.4-0.9-0.6-2-0.6-3V15.6c0-0.8,0.6-1.5,1.4-1.6h12.1
			c0.9,0,1.6-0.8,1.6-1.6V5.7C182.2,4.8,181.6,4,180.6,4L180.6,4z"/>
		<path fill="#5333ED" d="M257.1,43.8h-7.8c-0.5,0-0.9-0.2-1.2-0.6L232.3,25v10.3c0,0.1,0,0.1,0,0.2v6.8c0,0.9-0.7,1.6-1.6,1.6h-6.8
			c-0.9,0-1.6-0.7-1.6-1.6c0,0,0-0.5,0-0.7V6.3c0-0.1,0-0.3,0-0.4V5.6c0-0.9,0.7-1.6,1.6-1.6h6.8c0.9,0,1.6,0.7,1.6,1.6v6.8
			c0,0.1,0,0.1,0,0.2V22l14.9-17.4c0.3-0.3,0.7-0.6,1.2-0.6h7.8c1.3,0,2,1.6,1.2,2.6l-13.7,16c-0.5,0.6-0.5,1.5,0,2.1l14.6,16.6
			C259.1,42.3,258.4,43.8,257.1,43.8z"/>
		<path fill="#5333ED" d="M149.7,16.8c-0.1-1.4-0.5-2.8-1.1-4.1c-0.7-1.7-1.8-3.2-3.1-4.5l0,0c-1.4-1.3-2.9-2.3-4.6-2.9
			c-1.7-0.7-3.7-1.1-5.6-1.1h-17.9c-0.9,0-1.6,0.7-1.6,1.6v36.7c0,0.9,0.7,1.5,1.6,1.5h6.8c0.9,0,1.6-0.7,1.6-1.6V31.7h9.6
			c1.9,0,3.9-0.4,5.6-1.1c1.7-0.7,3.2-1.7,4.6-3l0,0c1.3-1.3,2.4-2.8,3.1-4.5c0.7-1.6,1.1-3.3,1.1-5.1c0-0.1,0-0.2,0-0.3L149.7,16.8
			z M139.5,19.3c-0.5,1.1-1.4,2-2.5,2.4c-0.5,0.2-1.1,0.3-1.7,0.3h-9.6v-8.4h9.6c0.6,0,1.2,0.1,1.7,0.3c1.1,0.4,2,1.3,2.5,2.4
			c0.2,0.5,0.3,1,0.4,1.5C139.9,18.4,139.7,18.9,139.5,19.3z"/>
		<g>
			<path fill="#5333ED" d="M202.8,43.9c-5.4,0-9.9-1.7-13.3-5.2s-5.1-8-5.1-13.7v-1c0-3.8,0.7-7.2,2.2-10.1c1.5-3,3.6-5.4,6.3-7.1
				c2.7-1.7,5.7-2.5,9-2.5c5.2,0,9.3,1.7,12.2,5.1c2.8,3.3,4.3,8.1,4.3,14v1c0,1.8-1.5,3.3-3.3,3.3h-20.3c0.3,2.2,1.2,4,2.6,5.3
				c1.6,1.6,3.5,2.3,5.9,2.3c2.8,0,5.1-0.9,7-2.7c0.6-0.6,1.4-0.9,2.3-0.9s1.6,0.3,2.2,0.9l1.3,1.2c1.3,1.2,1.4,3.3,0.2,4.6
				c-1.3,1.4-2.9,2.6-4.8,3.5C208.9,43.2,206,43.9,202.8,43.9z M208.3,19.6c-0.2-2.2-0.8-3.9-1.9-5.1c-1.1-1.2-2.6-1.8-4.5-1.8
				c-1.9,0-3.5,0.6-4.6,2c-1,1.2-1.8,2.8-2.2,4.8H208.3z"/>
			<path fill="#5333ED" d="M202.8,42.8c-5.2,0-9.3-1.6-12.6-4.9s-4.8-7.6-4.8-13v-1c0-3.6,0.7-6.9,2.1-9.7c1.4-2.8,3.4-5.1,5.9-6.7
				s5.3-2.4,8.4-2.4c4.9,0,8.8,1.6,11.4,4.7s4,7.6,4,13.4v1c0,1.2-1,2.2-2.2,2.2h-20.3c-0.6,0-1.1,0.6-1,1.2
				c0.4,2.4,1.3,4.4,2.9,5.9c1.8,1.7,4,2.6,6.6,2.6c3,0,5.6-1,7.7-2.9c0.9-0.8,2.2-0.8,3.1,0l1.3,1.2c0.9,0.8,0.9,2.2,0.1,3.1
				c-1.2,1.3-2.7,2.5-4.5,3.3C208.6,42.3,205.8,42.8,202.8,42.8z M201.8,11.8c-2.2,0-4,0.8-5.4,2.3c-1.2,1.4-2,3.2-2.5,5.5
				c-0.1,0.5,0.3,1,0.8,1h14.5v-0.6c-0.2-2.7-0.9-4.8-2.2-6.2C205.9,12.5,204.1,11.8,201.8,11.8z"/>
		</g>
	</g>
</g>
<g>
	<path fill="#5333ED" d="M44.6,21.6c0,0,3.7-4.2,10.8-1.8c0.3,0.1,0.6,0.3,0.9,0.6l7.5,8c1.6,1.8,2.4,4.2,2.3,6.5
		c-0.1,2-0.8,4.4-2.7,6.3c0,0-4.5,5-11,2.4c-1-0.4-1.9-1-2.6-1.7L38.4,30.8c-0.4-0.4-1-0.7-1.5-0.9c-0.2,0-0.4-0.1-0.7-0.1
		c0,0-0.1,0,0-0.1L44.6,21.6z"/>
	<path fill="#5333ED" d="M55.6,18.8l-13.8-13c-0.2-0.2-0.5-0.4-0.7-0.6c-1.2-0.8-4.8-2.8-9.3-0.8c-1.1,0.5-2,1.2-2.9,2L9.4,25.9
		c-1.3,1.3-2.2,2.9-2.7,4.6c-0.6,2.5-0.6,6.1,2.8,9.3c0.2,0.2,0.4,0.3,0.5,0.5c0.9,1,4.9,4.9,11.6,1.2c0.8-0.4,1.5-1,2.1-1.6
		l19.8-19.1C43.5,20.9,48.1,16,55.6,18.8C55.5,18.9,55.6,18.8,55.6,18.8z"/>
</g>
</svg>